<svg width="220" height="220" xmlns="http://www.w3.org/2000/svg" overflow="hidden">
    <defs>
        <clipPath id="clip0">
            <rect x="412" y="250" width="220" height="220"/>
        </clipPath>
        <clipPath id="clip1">
            <rect x="413" y="250" width="219" height="219"/>
        </clipPath>
        <clipPath id="clip2">
            <rect x="413" y="250" width="219" height="219"/>
        </clipPath>
        <clipPath id="clip3">
            <rect x="413" y="250" width="455" height="219"/>
        </clipPath>
    </defs>
    <g clip-path="url(#clip0)" transform="translate(-412 -250)">
        <g clip-path="url(#clip1)">
            <g clip-path="url(#clip2)">
                <g clip-path="url(#clip3)">
                    <path d="M256.924 116.983 266.806 116.983 266.806 129.46C263.213 131.057 259.619 131.856 256.026 131.856 251.135 131.856 247.242 130.458 244.348 127.564 241.453 124.769 239.956 121.275 239.956 117.083 239.956 112.691 241.453 109.098 244.447 106.104 247.442 103.209 251.235 101.712 255.826 101.712 257.523 101.712 259.02 101.911 260.518 102.211 262.015 102.61 263.911 103.209 266.107 104.207L266.107 108.499C262.614 106.503 259.12 105.405 255.726 105.405 252.532 105.405 249.837 106.503 247.641 108.699 245.445 110.895 244.348 113.59 244.348 116.784 244.348 120.078 245.445 122.872 247.641 124.969 249.837 127.065 252.632 128.163 256.126 128.163 257.823 128.163 259.819 127.763 262.115 126.965L262.514 126.865 262.514 120.776 256.824 120.776 256.924 116.983 256.924 116.983Z"
                          fill="#07294D" transform="matrix(1 0 0 1.00094 413.307 250)"/>
                    <path d="M271.597 102.011 275.39 102.011 275.39 131.357 271.597 131.357Z" fill="#07294D"
                          transform="matrix(1 0 0 1.00094 413.307 250)"/>
                    <path d="M289.364 111.993C292.259 111.993 294.754 112.891 296.651 114.887 298.647 116.784 299.545 119.179 299.545 122.074 299.545 124.869 298.547 127.165 296.551 129.061 294.555 130.858 292.059 131.856 289.065 131.856 286.17 131.856 283.775 130.957 281.778 129.061 279.782 127.165 278.884 124.869 278.884 122.074 278.884 119.279 279.882 116.884 281.878 114.987 283.874 112.991 286.37 111.993 289.364 111.993M289.165 115.486C287.368 115.486 285.871 116.085 284.673 117.283 283.475 118.481 282.876 119.978 282.876 121.874 282.876 123.771 283.475 125.268 284.673 126.366 285.871 127.564 287.468 128.163 289.364 128.163 291.261 128.163 292.758 127.564 293.956 126.366 295.153 125.168 295.752 123.671 295.752 121.775 295.752 119.978 295.153 118.381 293.856 117.183 292.558 116.085 291.061 115.486 289.165 115.486"
                          fill="#07294D" transform="matrix(1 0 0 1.00094 413.307 250)"/>
                    <path d="M301.941 102.011 305.734 102.011 305.734 113.39C307.431 112.192 309.128 111.593 311.024 111.593 313.519 111.593 315.516 112.492 317.013 114.388 318.61 116.285 319.309 118.58 319.309 121.475 319.309 124.569 318.41 127.065 316.514 128.861 314.617 130.658 312.122 131.656 309.028 131.656 307.83 131.656 306.433 131.556 305.135 131.257 303.738 130.957 302.64 130.658 301.841 130.259L301.841 102.011 301.941 102.011ZM305.734 117.083 305.734 127.564C307.031 127.963 308.329 128.163 309.726 128.163 311.423 128.163 312.821 127.564 313.919 126.366 315.017 125.168 315.516 123.571 315.516 121.675 315.516 119.778 315.017 118.181 314.019 116.983 313.02 115.786 311.723 115.187 310.126 115.187 308.728 115.187 307.231 115.885 305.734 117.083"
                          fill="#07294D" transform="matrix(1 0 0 1.00094 413.307 250)"/>
                    <path d="M335.08 119.778 335.08 127.963C335.08 128.662 335.279 128.961 335.778 128.961 336.277 128.961 336.976 128.662 337.974 127.963L337.974 130.259C337.076 130.858 336.377 131.157 335.878 131.357 335.379 131.556 334.78 131.656 334.181 131.656 332.584 131.656 331.586 131.057 331.287 129.76 329.689 131.057 327.893 131.656 326.096 131.656 324.799 131.656 323.601 131.157 322.702 130.359 321.804 129.46 321.405 128.362 321.405 126.965 321.405 125.767 321.804 124.669 322.702 123.671 323.601 122.673 324.799 121.974 326.396 121.375L331.287 119.678 331.287 118.68C331.287 116.384 330.089 115.187 327.793 115.187 325.697 115.187 323.701 116.285 321.704 118.381L321.704 114.189C323.202 112.392 325.298 111.593 328.092 111.593 330.189 111.593 331.885 112.092 333.083 113.19 333.482 113.59 333.882 113.989 334.181 114.588 334.481 115.187 334.68 115.786 334.78 116.285 334.98 117.083 335.08 118.181 335.08 119.778M331.287 127.564 331.287 121.874 328.691 122.872C327.394 123.372 326.495 123.871 325.897 124.47 325.397 124.969 325.098 125.667 325.098 126.466 325.098 127.264 325.397 127.863 325.897 128.462 326.396 128.961 327.094 129.261 327.893 129.261 329.091 129.061 330.288 128.562 331.287 127.564"
                          fill="#07294D" transform="matrix(1 0 0 1.00094 413.307 250)"/>
                    <path d="M340.47 102.011 344.263 102.011 344.263 131.357 340.47 131.357Z" fill="#07294D"
                          transform="matrix(1 0 0 1.00094 413.307 250)"/>
                    <path d="M360.632 102.011 364.824 102.011 364.824 131.357 360.632 131.357Z" fill="#07294D"
                          transform="matrix(1 0 0 1.00094 413.307 250)"/>
                    <path d="M373.808 112.092 373.808 114.588C375.505 112.691 377.501 111.793 379.597 111.793 380.795 111.793 381.893 112.092 382.991 112.691 383.989 113.29 384.787 114.189 385.386 115.287 385.885 116.384 386.185 118.081 386.185 120.477L386.185 131.556 382.292 131.556 382.292 120.577C382.292 118.58 381.993 117.183 381.394 116.384 380.795 115.486 379.797 115.087 378.399 115.087 376.603 115.087 375.105 115.985 373.808 117.782L373.808 131.556 369.915 131.556 369.915 112.192 373.808 112.092 373.808 112.092Z"
                          fill="#07294D" transform="matrix(1 0 0 1.00094 413.307 250)"/>
                    <path d="M403.553 102.011 407.446 102.011 407.446 131.357 399.261 131.357C396.366 131.357 394.17 130.458 392.373 128.662 390.677 126.865 389.778 124.47 389.778 121.375 389.778 118.58 390.677 116.185 392.473 114.388 394.27 112.592 396.566 111.593 399.36 111.593 400.658 111.593 402.055 111.893 403.553 112.392L403.553 102.011 403.553 102.011ZM403.553 128.163 403.553 115.885C402.355 115.287 401.157 114.987 399.959 114.987 398.063 114.987 396.566 115.586 395.368 116.884 394.27 118.181 393.671 119.778 393.671 121.974 393.671 123.97 394.17 125.468 395.168 126.566 395.767 127.165 396.366 127.664 397.065 127.863 397.763 128.063 398.861 128.163 400.658 128.163L403.553 128.163Z"
                          fill="#07294D" transform="matrix(1 0 0 1.00094 413.307 250)"/>
                    <path d="M413.734 103.908C414.333 103.908 414.932 104.107 415.331 104.506 415.73 104.906 416.03 105.505 416.03 106.104 416.03 106.702 415.83 107.301 415.331 107.701 414.932 108.1 414.333 108.399 413.734 108.399 413.135 108.399 412.636 108.2 412.137 107.701 411.738 107.201 411.438 106.702 411.438 106.104 411.438 105.505 411.638 105.006 412.137 104.506 412.636 104.207 413.135 103.908 413.734 103.908M411.837 112.092 415.63 112.092 415.63 131.457 411.837 131.457 411.837 112.092Z"
                          fill="#07294D" transform="matrix(1 0 0 1.00094 413.307 250)"/>
                    <path d="M432.499 119.778 432.499 127.963C432.499 128.662 432.699 128.961 433.198 128.961 433.697 128.961 434.396 128.662 435.394 127.963L435.394 130.259C434.495 130.858 433.797 131.157 433.298 131.357 432.799 131.556 432.2 131.656 431.601 131.656 430.004 131.656 429.006 131.057 428.706 129.76 427.109 131.057 425.312 131.656 423.516 131.656 422.218 131.656 421.02 131.157 420.122 130.359 419.224 129.46 418.824 128.362 418.824 126.965 418.824 125.767 419.224 124.669 420.122 123.671 421.02 122.673 422.218 121.974 423.815 121.375L428.706 119.678 428.706 118.68C428.706 116.384 427.508 115.187 425.213 115.187 423.116 115.187 421.12 116.285 419.124 118.381L419.124 114.189C420.621 112.392 422.717 111.593 425.512 111.593 427.608 111.593 429.305 112.092 430.503 113.19 430.902 113.59 431.301 113.989 431.601 114.588 431.9 115.187 432.2 115.786 432.2 116.285 432.399 117.083 432.499 118.181 432.499 119.778M428.706 127.564 428.706 121.874 426.111 122.872C424.813 123.372 423.915 123.871 423.316 124.47 422.817 124.969 422.518 125.667 422.518 126.466 422.518 127.264 422.817 127.863 423.316 128.462 423.815 128.961 424.514 129.261 425.312 129.261 426.51 129.061 427.608 128.562 428.706 127.564"
                          fill="#07294D" transform="matrix(1 0 0 1.00094 413.307 250)"/>
                    <path d="M441.582 112.092 441.582 114.588C443.279 112.691 445.275 111.793 447.372 111.793 448.569 111.793 449.667 112.092 450.765 112.691 451.763 113.29 452.562 114.189 453.161 115.287 453.66 116.384 453.959 118.081 453.959 120.477L453.959 131.556 450.166 131.556 450.166 120.577C450.166 118.58 449.867 117.183 449.268 116.384 448.669 115.486 447.671 115.087 446.274 115.087 444.477 115.087 442.98 115.985 441.682 117.782L441.682 131.556 437.789 131.556 437.789 112.192 441.582 112.092 441.582 112.092Z"
                          fill="#07294D" transform="matrix(1 0 0 1.00094 413.307 250)"/>
                    <path d="M241.054 141.238 245.246 141.238 245.246 170.584 241.054 170.584Z" fill="#07294D"
                          transform="matrix(1 0 0 1.00094 413.307 250)"/>
                    <path d="M254.229 151.32 254.229 153.815C255.926 151.919 257.922 151.02 260.018 151.02 261.216 151.02 262.314 151.32 263.412 151.919 264.41 152.518 265.209 153.416 265.808 154.514 266.307 155.612 266.606 157.309 266.606 159.704L266.606 170.784 262.813 170.784 262.813 159.804C262.813 157.808 262.514 156.41 261.915 155.612 261.316 154.714 260.318 154.314 258.921 154.314 257.124 154.314 255.627 155.213 254.329 157.009L254.329 170.784 250.436 170.784 250.436 151.42 254.229 151.42 254.229 151.32Z"
                          fill="#07294D" transform="matrix(1 0 0 1.00094 413.307 250)"/>
                    <path d="M268.403 154.314 275.59 147.227 275.59 151.22 281.678 151.22 281.678 154.714 275.59 154.714 275.59 164.196C275.59 166.392 276.488 167.49 278.384 167.49 279.782 167.49 281.179 166.991 282.776 166.092L282.776 169.686C281.279 170.484 279.682 170.884 277.985 170.884 276.189 170.884 274.791 170.384 273.593 169.386 273.194 169.087 272.895 168.688 272.695 168.388 272.495 167.989 272.296 167.49 272.096 166.891 271.897 166.292 271.897 165.094 271.897 163.298L271.897 154.714 268.503 154.714 268.503 154.314 268.403 154.314Z"
                          fill="#07294D" transform="matrix(1 0 0 1.00094 413.307 250)"/>
                    <path d="M301.043 161.301 287.468 161.301C287.568 163.198 288.166 164.595 289.364 165.693 290.462 166.791 291.959 167.29 293.756 167.29 296.251 167.29 298.647 166.492 300.743 164.895L300.743 168.588C299.545 169.386 298.348 169.885 297.25 170.285 296.052 170.584 294.754 170.784 293.157 170.784 291.061 170.784 289.264 170.384 287.967 169.486 286.669 168.588 285.571 167.39 284.773 165.893 283.974 164.396 283.575 162.699 283.575 160.702 283.575 157.808 284.373 155.412 286.07 153.516 287.767 151.719 289.863 150.721 292.558 150.721 295.153 150.721 297.15 151.619 298.747 153.416 300.244 155.213 301.043 157.608 301.043 160.603L301.043 161.301 301.043 161.301ZM287.468 159.006 297.15 159.006C297.05 157.508 296.551 156.311 295.752 155.512 294.954 154.714 293.856 154.314 292.458 154.314 291.061 154.314 289.963 154.714 289.065 155.512 288.366 156.311 287.767 157.508 287.468 159.006"
                          fill="#07294D" transform="matrix(1 0 0 1.00094 413.307 250)"/>
                    <path d="M308.429 151.32 308.429 155.712 308.629 155.412C310.525 152.418 312.322 150.921 314.218 150.921 315.616 150.921 317.113 151.619 318.71 153.116L316.714 156.51C315.416 155.213 314.118 154.614 313.02 154.614 311.823 154.614 310.725 155.213 309.826 156.41 308.928 157.608 308.429 159.006 308.429 160.603L308.429 170.684 304.536 170.684 304.536 151.32 308.429 151.32Z"
                          fill="#07294D" transform="matrix(1 0 0 1.00094 413.307 250)"/>
                    <path d="M325.996 151.32 325.996 153.815C327.693 151.919 329.689 151.02 331.786 151.02 332.983 151.02 334.081 151.32 335.179 151.919 336.177 152.518 336.976 153.416 337.575 154.514 338.074 155.612 338.373 157.309 338.373 159.704L338.373 170.784 334.58 170.784 334.58 159.804C334.58 157.808 334.281 156.41 333.682 155.612 333.083 154.714 332.085 154.314 330.688 154.314 328.891 154.314 327.394 155.213 326.096 157.009L326.096 170.784 322.203 170.784 322.203 151.42 325.996 151.42 325.996 151.32Z"
                          fill="#07294D" transform="matrix(1 0 0 1.00094 413.307 250)"/>
                    <path d="M355.043 159.006 355.043 167.19C355.043 167.889 355.242 168.189 355.741 168.189 356.24 168.189 356.939 167.889 357.937 167.19L357.937 169.486C357.039 170.085 356.34 170.384 355.841 170.684 355.342 170.884 354.743 170.983 354.144 170.983 352.547 170.983 351.549 170.384 351.25 169.087 349.653 170.384 347.856 170.983 346.059 170.983 344.762 170.983 343.564 170.584 342.665 169.686 341.767 168.787 341.368 167.689 341.368 166.292 341.368 165.094 341.767 163.996 342.665 162.998 343.564 162 344.762 161.301 346.359 160.702L351.25 159.006 351.25 158.007C351.25 155.712 350.052 154.514 347.756 154.514 345.66 154.514 343.664 155.612 341.667 157.708L341.667 153.516C343.165 151.719 345.261 150.921 348.055 150.921 350.152 150.921 351.848 151.42 353.046 152.518 353.445 152.917 353.845 153.316 354.144 153.915 354.444 154.514 354.743 155.113 354.743 155.612 354.943 156.211 355.043 157.409 355.043 159.006M351.25 166.791 351.25 161.102 348.654 162.1C347.357 162.599 346.458 163.098 345.86 163.697 345.36 164.196 345.061 164.895 345.061 165.693 345.061 166.492 345.36 167.091 345.86 167.689 346.359 168.189 347.057 168.488 347.856 168.488 349.054 168.288 350.251 167.789 351.25 166.791"
                          fill="#07294D" transform="matrix(1 0 0 1.00094 413.307 250)"/>
                    <path d="M357.638 154.314 364.824 147.227 364.824 151.22 370.913 151.22 370.913 154.714 364.824 154.714 364.824 164.196C364.824 166.392 365.723 167.49 367.619 167.49 369.017 167.49 370.414 166.991 372.011 166.092L372.011 169.686C370.514 170.484 368.917 170.884 367.22 170.884 365.423 170.884 364.026 170.384 362.828 169.386 362.429 169.087 362.129 168.688 361.93 168.388 361.73 167.989 361.531 167.49 361.331 166.891 361.131 166.292 361.131 165.094 361.131 163.298L361.131 154.714 357.738 154.714 357.738 154.314 357.638 154.314Z"
                          fill="#07294D" transform="matrix(1 0 0 1.00094 413.307 250)"/>
                    <path d="M377.501 143.135C378.1 143.135 378.699 143.335 379.098 143.834 379.497 144.233 379.797 144.832 379.797 145.431 379.797 146.03 379.597 146.529 379.098 147.028 378.699 147.427 378.1 147.726 377.501 147.726 376.902 147.726 376.403 147.527 375.904 147.028 375.505 146.529 375.205 146.03 375.205 145.431 375.205 144.832 375.405 144.333 375.904 143.834 376.403 143.335 377.002 143.135 377.501 143.135M375.604 151.32 379.397 151.32 379.397 170.684 375.604 170.684 375.604 151.32Z"
                          fill="#07294D" transform="matrix(1 0 0 1.00094 413.307 250)"/>
                    <path d="M393.372 151.22C396.266 151.22 398.762 152.218 400.658 154.115 402.654 156.011 403.553 158.407 403.553 161.301 403.553 164.096 402.555 166.392 400.558 168.288 398.562 170.085 396.067 171.083 393.072 171.083 390.177 171.083 387.782 170.185 385.786 168.288 383.889 166.392 382.891 164.096 382.891 161.301 382.891 158.506 383.889 156.111 385.885 154.214 387.982 152.218 390.377 151.22 393.372 151.22M393.172 154.714C391.375 154.714 389.878 155.312 388.68 156.51 387.482 157.708 386.884 159.205 386.884 161.102 386.884 162.998 387.482 164.495 388.68 165.593 389.878 166.791 391.475 167.39 393.372 167.39 395.268 167.39 396.765 166.791 397.963 165.593 399.161 164.396 399.76 162.898 399.76 161.002 399.76 159.205 399.161 157.608 397.863 156.41 396.665 155.312 395.068 154.714 393.172 154.714"
                          fill="#07294D" transform="matrix(1 0 0 1.00094 413.307 250)"/>
                    <path d="M410.839 151.32 410.839 153.815C412.536 151.919 414.532 151.02 416.629 151.02 417.826 151.02 418.924 151.32 420.022 151.919 421.02 152.518 421.819 153.416 422.418 154.514 422.917 155.612 423.216 157.309 423.216 159.704L423.216 170.784 419.423 170.784 419.423 159.804C419.423 157.808 419.124 156.41 418.525 155.612 417.926 154.714 416.928 154.314 415.531 154.314 413.734 154.314 412.237 155.213 410.939 157.009L410.939 170.784 407.046 170.784 407.046 151.42 410.839 151.42 410.839 151.32Z"
                          fill="#07294D" transform="matrix(1 0 0 1.00094 413.307 250)"/>
                    <path d="M439.786 159.006 439.786 167.19C439.786 167.889 439.985 168.189 440.484 168.189 440.983 168.189 441.682 167.889 442.68 167.19L442.68 169.486C441.782 170.085 441.083 170.384 440.584 170.684 440.085 170.884 439.486 170.983 438.887 170.983 437.29 170.983 436.292 170.384 435.993 169.087 434.396 170.384 432.599 170.983 430.802 170.983 429.505 170.983 428.307 170.584 427.409 169.686 426.51 168.787 426.111 167.689 426.111 166.292 426.111 165.094 426.51 163.996 427.409 162.998 428.307 162 429.505 161.301 431.102 160.702L435.993 159.006 435.993 158.007C435.993 155.712 434.795 154.514 432.499 154.514 430.403 154.514 428.407 155.612 426.41 157.708L426.41 153.516C427.908 151.719 430.004 150.921 432.799 150.921 434.895 150.921 436.592 151.42 437.789 152.518 438.189 152.917 438.588 153.316 438.887 153.915 439.187 154.514 439.486 155.113 439.486 155.612 439.786 156.211 439.786 157.409 439.786 159.006M436.092 166.791 436.092 161.102 433.497 162.1C432.2 162.599 431.301 163.098 430.702 163.697 430.203 164.196 429.904 164.895 429.904 165.693 429.904 166.492 430.104 167.091 430.702 167.689 431.202 168.189 431.9 168.488 432.699 168.488 433.897 168.288 434.994 167.789 436.092 166.791"
                          fill="#07294D" transform="matrix(1 0 0 1.00094 413.307 250)"/>
                    <path d="M445.275 141.238 449.068 141.238 449.068 170.584 445.275 170.584Z" fill="#07294D"
                          transform="matrix(1 0 0 1.00094 413.307 250)"/>
                    <path d="M248.34 197.534 245.146 195.638C243.15 194.44 241.752 193.242 240.854 192.044 240.055 190.847 239.556 189.449 239.556 187.952 239.556 185.656 240.355 183.76 241.952 182.362 243.549 180.965 245.645 180.166 248.24 180.166 250.736 180.166 252.932 180.865 255.028 182.262L255.028 187.054C252.932 185.057 250.636 183.959 248.24 183.959 246.843 183.959 245.745 184.259 244.847 184.958 243.948 185.556 243.549 186.355 243.549 187.353 243.549 188.251 243.848 189.05 244.547 189.848 245.146 190.647 246.244 191.445 247.641 192.244L250.836 194.141C254.429 196.237 256.226 199.031 256.226 202.325 256.226 204.721 255.427 206.617 253.83 208.015 252.233 209.512 250.237 210.211 247.641 210.211 244.747 210.211 242.152 209.312 239.756 207.516L239.756 202.226C242.052 205.12 244.647 206.518 247.641 206.518 248.939 206.518 250.037 206.118 250.935 205.42 251.834 204.721 252.233 203.723 252.233 202.625 252.133 200.828 250.935 199.131 248.34 197.534"
                          fill="#07294D" transform="matrix(1 0 0 1.00094 413.307 250)"/>
                    <path d="M273.893 205.32 273.893 209.113C271.996 209.811 270.1 210.211 268.303 210.211 265.309 210.211 262.813 209.312 261.017 207.516 259.22 205.719 258.322 203.323 258.322 200.329 258.322 197.335 259.22 194.839 260.917 192.943 262.714 191.046 265.009 190.148 267.804 190.148 268.802 190.148 269.701 190.248 270.499 190.447 271.298 190.647 272.296 190.946 273.394 191.545L273.394 195.638C271.497 194.44 269.701 193.741 268.004 193.741 266.307 193.741 264.909 194.34 263.712 195.538 262.614 196.736 262.015 198.333 262.015 200.129 262.015 202.126 262.614 203.723 263.811 204.821 265.009 206.018 266.606 206.617 268.603 206.617 270.299 206.617 271.996 206.118 273.893 205.32"
                          fill="#07294D" transform="matrix(1 0 0 1.00094 413.307 250)"/>
                    <path d="M277.287 180.466 281.079 180.466 281.079 193.043C282.677 191.046 284.673 190.148 287.068 190.148 288.366 190.148 289.564 190.447 290.562 191.146 291.56 191.745 292.359 192.643 292.858 193.841 293.357 194.939 293.656 196.636 293.656 198.932L293.656 209.911 289.863 209.911 289.863 197.933C289.863 196.536 289.564 195.338 288.865 194.54 288.166 193.641 287.268 193.242 286.07 193.242 285.272 193.242 284.473 193.442 283.675 193.941 282.976 194.34 282.078 195.139 281.179 196.137L281.179 210.011 277.386 210.011 277.386 180.466 277.287 180.466Z"
                          fill="#07294D" transform="matrix(1 0 0 1.00094 413.307 250)"/>
                    <path d="M307.231 190.447C310.126 190.447 312.621 191.445 314.518 193.342 316.514 195.238 317.412 197.634 317.412 200.529 317.412 203.323 316.414 205.619 314.418 207.516 312.421 209.312 309.926 210.311 306.932 210.311 304.037 210.311 301.641 209.412 299.645 207.516 297.649 205.619 296.75 203.323 296.75 200.529 296.75 197.734 297.749 195.338 299.745 193.442 301.841 191.346 304.336 190.447 307.231 190.447M307.031 193.841C305.235 193.841 303.638 194.44 302.54 195.638 301.342 196.836 300.743 198.333 300.743 200.229 300.743 202.126 301.342 203.623 302.54 204.721 303.738 205.919 305.335 206.518 307.231 206.518 309.128 206.518 310.625 205.919 311.823 204.721 313.02 203.523 313.619 202.026 313.619 200.129 313.619 198.333 313.02 196.736 311.723 195.538 310.525 194.44 308.928 193.841 307.031 193.841"
                          fill="#07294D" transform="matrix(1 0 0 1.00094 413.307 250)"/>
                    <path d="M330.189 190.447C333.083 190.447 335.579 191.445 337.475 193.342 339.372 195.238 340.37 197.634 340.37 200.529 340.37 203.323 339.372 205.619 337.375 207.516 335.379 209.312 332.884 210.311 329.889 210.311 326.994 210.311 324.599 209.412 322.603 207.516 320.606 205.619 319.708 203.323 319.708 200.529 319.708 197.734 320.706 195.338 322.702 193.442 324.699 191.346 327.194 190.447 330.189 190.447M329.989 193.841C328.192 193.841 326.595 194.44 325.497 195.638 324.299 196.836 323.701 198.333 323.701 200.229 323.701 202.126 324.299 203.623 325.497 204.721 326.695 205.919 328.292 206.518 330.189 206.518 332.085 206.518 333.582 205.919 334.78 204.721 335.978 203.523 336.577 202.026 336.577 200.129 336.577 198.333 335.978 196.736 334.68 195.538 333.383 194.44 331.786 193.841 329.989 193.841"
                          fill="#07294D" transform="matrix(1 0 0 1.00094 413.307 250)"/>
                    <path d="M343.863 180.466 347.656 180.466 347.656 209.811 343.863 209.811Z" fill="#07294D"
                          transform="matrix(1 0 0 1.00094 413.307 250)"/>
                    <path d="M115.985 163.198C110.196 165.194 103.808 166.292 97.0203 166.092 78.5545 166.192 58.7911 155.412 46.6137 137.545 46.3142 137.346 46.1146 137.146 46.1146 137.146-0.399261 103.908 13.9741 58.1922 16.3697 51.6044 5.39002 69.3715-0.598891 90.4325 0 111.494 0.299446 126.067 3.59335 140.739 9.68207 154.115 12.8762 157.608 54 199.83 115.985 163.198"
                          fill="#A5CD39" transform="matrix(1 0 0 1.00094 413.307 250)"/>
                    <path d="M215.501 125.468C215.501 124.969 215.501 124.37 215.401 123.871 215.401 123.571 215.401 123.372 215.401 123.372L215.401 123.471C215.401 122.773 215.301 122.074 215.202 121.375 212.806 103.409 197.035 90.5324 179.567 92.1294 178.669 92.1294 177.771 92.2292 176.872 92.329 161.501 94.3253 151.02 106.004 149.623 121.176L149.324 122.673C149.324 122.673 149.324 122.773 149.324 122.972L149.324 122.872C149.324 123.272 149.324 124.07 149.224 125.168L149.224 125.168C149.124 127.065 148.924 129.959 148.425 133.553 145.63 155.113 133.952 201.627 84.1442 215.8 85.342 216.1 86.5397 216.399 87.7375 216.599 111.993 221.59 137.545 217.996 159.604 206.717 181.664 195.438 199.431 176.573 209.612 154.115 211.409 150.122 212.506 147.627 213.604 143.933 214.902 139.641 215.501 135.449 215.501 131.457 215.601 130.259 215.501 127.464 215.501 125.468"
                          fill="#EC1C24" transform="matrix(1 0 0 1.00094 413.307 250)"/>
                    <path d="M148.425 133.652C148.924 130.059 149.124 127.165 149.224 125.168 149.224 124.07 149.324 123.372 149.324 122.872L149.324 122.972C149.324 122.972 149.324 122.972 149.324 123.072 149.324 123.272 149.224 123.671 149.124 124.07 148.725 126.366 147.826 130.758 146.529 133.952 146.129 135.05 145.73 136.048 145.231 137.146L145.131 137.346C140.041 148.525 129.56 158.407 115.985 163.198 54 199.83 12.7763 157.608 9.68207 154.214 10.5804 156.211 11.4787 158.207 12.4769 160.104 12.5767 160.303 12.6765 160.403 12.7763 160.603 13.1756 161.501 13.6747 162.299 14.1738 163.098 16.9686 168.089 20.0628 172.58 23.1571 176.673 23.8558 177.571 24.6543 178.569 25.4529 179.468 40.2255 197.135 60.5878 210.011 83.0462 215.501 83.3457 215.601 83.6451 215.701 83.9445 215.701 84.0444 215.701 84.0444 215.701 84.1442 215.701L84.1442 215.701C133.952 201.726 145.63 155.113 148.425 133.652"
                          fill="#F6921E" transform="matrix(1 0 0 1.00094 413.307 250)"/>
                    <path d="M207.116 60.488 207.116 60.488C196.137 38.4288 177.571 20.3623 155.312 10.0813 148.425 6.88725 141.238 4.39187 133.852 2.79482 133.553 2.69501 133.253 2.69501 132.854 2.59519 122.573 0.299446 92.329-1.59704 60.0887 40.525L60.0887 40.525C68.0739 32.939 77.756 26.7505 88.6359 22.658 107.401 15.5712 129.56 14.573 150.322 21.5601 171.083 28.4473 190.148 42.8207 202.924 62.6839L202.924 62.6839C203.823 64.0813 205.32 64.78 206.418 64.281 207.516 63.7819 207.715 62.1848 207.116 60.488"
                          fill="#00BFFF" transform="matrix(1 0 0 1.00094 413.307 250)"/>
                    <path d="M83.2458 3.09427C59.2902 8.88355 37.5305 23.1571 22.5582 42.7209 20.3623 45.6155 18.2662 48.61 16.3697 51.7043 13.9741 58.3919-0.399261 104.007 46.1146 137.246 46.1146 137.246 46.3142 137.346 46.6137 137.645L46.6137 137.645C41.2237 129.76 37.3309 120.377 35.8336 110.096 32.939 93.6266 36.0333 75.2606 45.3161 59.2902 49.2089 52.5028 54.1996 46.1146 60.0887 40.525 92.329-1.59704 122.573 0.299446 132.854 2.59519 133.253 2.69501 133.553 2.69501 133.852 2.79482 117.283-0.998152 99.7154-0.898336 83.2458 3.09427"
                          fill="#005AA9" transform="matrix(1 0 0 1.00094 413.307 250)"/>
                </g>
            </g>
        </g>
    </g>
</svg>